<svg xmlns="http://www.w3.org/2000/svg" aria-hidden="true" focusable="false" style="width:0;height:0;position:absolute;">
  <linearGradient id="my-cool-gradient" x2="1" y2="1">
    <stop offset="0%" stop-color="#447799" />
    <stop offset="50%" stop-color="#224488" />
    <stop offset="100%" stop-color="#112266" />
  </linearGradient>
  <linearGradient id="my-warm-gradient" x2="1" y2="1">
    <stop offset="0%" stop-color="#CC7744" />
    <stop offset="50%" stop-color="#992244" />
    <stop offset="100%" stop-color="#661133" />
  </linearGradient>
  <symbol id="icon-carpet" viewBox="0 0 38 60"><path d="M34 18v33.9c0 .3-.1.6-.3.8-.4.3-.8.3-1.2.3H5a1 1 0 0 1-1-1V8c0-.6.4-1 1-1h28c.6 0 1 .4 1 1v10zm3-18a1 1 0 0 0-1 1v2h-2V1a1 1 0 0 0-2 0v2h-2V1a1 1 0 0 0-2 0v2h-2V1a1 1 0 0 0-2 0v2h-2V1a1 1 0 0 0-2 0v2h-2V1a1 1 0 0 0-2 0v2h-2V1a1 1 0 0 0-2 0v2h-2V1a1 1 0 0 0-2 0v2H6V1a1 1 0 0 0-2 0v2H2V1a1 1 0 0 0-2 0v58a1 1 0 0 0 2 0v-2h2v2a1 1 0 0 0 2 0v-2h2v2a1 1 0 0 0 2 0v-2h2v2a1 1 0 0 0 2 0v-2h2v2a1 1 0 0 0 2 0v-2h2v2a1 1 0 0 0 2 0v-2h2v2a1 1 0 0 0 2 0v-2h2v2a1 1 0 0 0 2 0v-2h2v2a1 1 0 0 0 2 0v-2h2v2a1 1 0 0 0 2 0V1c0-.6-.4-1-1-1z"/><path d="M8 16c0-.6.4-1 1-1h3v-3c0-.6.4-1 1-1h3V9H6v10h2v-3zM11 28.5l21 21V39h-3a1 1 0 0 1-1-1v-3h-3a1 1 0 0 1-1-1v-3h-3a1 1 0 0 1-1-1v-4c0-.6.4-1 1-1h3v-3c0-.6.4-1 1-1h3v-3c0-.6.4-1 1-1h3V9h-1.6L11 28.5z"/><path d="M30 22c0 .6-.4 1-1 1h-3v3c0 .6-.4 1-1 1h-3v2h3c.6 0 1 .4 1 1v3h3c.6 0 1 .4 1 1v3h2V19h-2v3zM27.6 9H18v3c0 .6-.4 1-1 1h-3v3c0 .6-.4 1-1 1h-3v3c0 .6-.4 1-1 1H6v9.6l2.8-2.8L27.6 9zM16 45h-3a1 1 0 0 1-1-1v-3H9a1 1 0 0 1-1-1v-3H6v14h6v-3c0-.6.4-1 1-1h3v-2z"/><path d="M6 33.4V35h3c.6 0 1 .4 1 1v3h3c.6 0 1 .4 1 1v3h3c.6 0 1 .4 1 1v4c0 .6-.4 1-1 1h-3v2h16.6L9.5 30 6 33.3z"/></symbol>
  <symbol id="icon-leaf" viewBox="0 0 100 100"><path d="M50.6 30.6l-3.6 3-3.5 3.1-3.4 3.5-1.6 1.7-1.6 1.8c-1 1.3-2.2 2.5-3.1 3.8l-3 3.8c-1.7 2.6-3.5 5.2-5 7.9-1.5 2.6-2.8 5.2-4 7.7l-1.6 3.7-1.4 3.6c-.8 2.2-1.6 4.3-2.1 6.2l-1.4 5-1 4.3-.1.2-.2 1.2a3.4 3.4 0 0 0 6.6 1c3-19.9 14.6-41.1 31.8-58.3l.7-.7a3.4 3.4 0 0 0 .2-4.7l-2.7 2.2z"/><path d="M85 6a51.3 51.3 0 0 0-61.4 52.2l.2-.2c1.5-2.7 3.3-5.4 5.2-8l3-4 3.2-3.7 1.6-1.9 1.8-1.8 3.4-3.4 3.6-3.2 3.7-3c2.3-2 4.8-3.7 7.1-5.3 2.3-1.7 4.6-3 6.7-4.4C65.2 18 67.2 17 69 16c1.7-1 3.3-1.7 4.6-2.4l4-2a.9.9 0 0 1 .8 1.6l-4 2c-1.3.7-2.9 1.4-4.6 2.4-1.7 1-3.6 2-5.7 3.4-2 1.3-4.3 2.7-6.5 4.3-2.3 1.6-4.7 3.3-7 5.3l-3.6 3-3.5 3.1-3.4 3.5-1.6 1.7-1.6 1.8c-1 1.3-2.2 2.5-3.1 3.8l-3 3.8c-1.7 2.6-3.5 5.2-5 7.9L24 62.6l.6 3.9A51.3 51.3 0 0 0 85 6z"/></symbol>
</svg>
